<svg width="106" height="41" viewBox="0 0 106 41" fill="none" xmlns="http://www.w3.org/2000/svg">
<path d="M49.0179 19.2259C49.0179 18.8886 48.9513 18.5723 48.8181 18.2771C48.6996 17.9679 48.5219 17.7008 48.2851 17.4759C48.0482 17.251 47.7669 17.0753 47.4411 16.9488C47.1302 16.8082 46.7897 16.738 46.4195 16.738C46.0642 16.738 45.7311 16.8012 45.4202 16.9277C45.1093 17.0542 44.8353 17.2299 44.5985 17.4548C44.3764 17.6797 44.1913 17.9468 44.0433 18.256C43.91 18.5512 43.8434 18.8675 43.8434 19.2048C43.8434 19.5422 43.91 19.8584 44.0433 20.1536C44.1765 20.4488 44.3616 20.7088 44.5985 20.9337C44.8353 21.1446 45.1093 21.3203 45.4202 21.4608C45.7459 21.5874 46.0864 21.6506 46.4418 21.6506C46.7971 21.6506 47.1302 21.5874 47.4411 21.4608C47.7521 21.3343 48.0186 21.1586 48.2406 20.9337C48.4775 20.7088 48.6626 20.4488 48.7958 20.1536C48.9439 19.8584 49.0179 19.5492 49.0179 19.2259ZM43.9544 30H39.9347V13.7861H43.9544V14.988C44.8131 13.9618 45.9828 13.4488 47.4633 13.4488C48.2777 13.4488 49.0327 13.6034 49.7286 13.9127C50.4393 14.2078 51.0537 14.6155 51.5719 15.1355C52.0901 15.6556 52.4898 16.2671 52.7712 16.9699C53.0673 17.6727 53.2153 18.4247 53.2153 19.2259C53.2153 20.0271 53.0673 20.7721 52.7712 21.4608C52.4898 22.1496 52.0901 22.754 51.5719 23.2741C51.0685 23.7942 50.4689 24.2018 49.773 24.497C49.0772 24.7922 48.3221 24.9398 47.5078 24.9398C46.0864 24.9398 44.902 24.4759 43.9544 23.5482V30ZM53.952 24.6024H57.7496V9H53.952V24.6024ZM62.6781 19.1627C62.6781 19.5141 62.7448 19.8444 62.878 20.1536C63.0113 20.4488 63.1889 20.7088 63.411 20.9337C63.6479 21.1586 63.9218 21.3343 64.2327 21.4608C64.5585 21.5874 64.9064 21.6506 65.2765 21.6506C65.6319 21.6506 65.965 21.5874 66.2759 21.4608C66.6016 21.3343 66.8755 21.1586 67.0976 20.9337C67.3344 20.7088 67.5195 20.4488 67.6528 20.1536C67.8008 19.8584 67.8748 19.5422 67.8748 19.2048C67.8748 18.8675 67.8008 18.5512 67.6528 18.256C67.5195 17.9468 67.3344 17.6797 67.0976 17.4548C66.8755 17.2299 66.6016 17.0542 66.2759 16.9277C65.965 16.8012 65.6319 16.738 65.2765 16.738C64.9064 16.738 64.5585 16.8012 64.2327 16.9277C63.9218 17.0542 63.6479 17.2299 63.411 17.4548C63.1889 17.6797 63.0113 17.9398 62.878 18.2349C62.7448 18.5161 62.6781 18.8253 62.6781 19.1627ZM67.7416 13.7861H71.7835V24.6024H67.7416V23.4006C66.8829 24.4267 65.7207 24.9398 64.2549 24.9398C63.4258 24.9398 62.6633 24.7992 61.9675 24.5181C61.2716 24.2229 60.6646 23.8153 60.1464 23.2952C59.6282 22.7751 59.221 22.1637 58.9249 21.4608C58.6436 20.758 58.503 19.992 58.503 19.1627C58.503 18.3896 58.6436 17.6586 58.9249 16.9699C59.2062 16.2671 59.5986 15.6556 60.102 15.1355C60.6054 14.6155 61.205 14.2078 61.9008 13.9127C62.5967 13.6034 63.3666 13.4488 64.2105 13.4488C65.6319 13.4488 66.8089 13.9197 67.7416 14.8614V13.7861ZM72.9643 13.7861H76.984V15.1566C77.5318 14.5241 78.087 14.1024 78.6496 13.8916C79.2122 13.6667 79.8711 13.5542 80.6262 13.5542C81.4257 13.5542 82.1067 13.6807 82.6693 13.9337C83.2468 14.1727 83.7354 14.5171 84.1351 14.9669C84.4608 15.3323 84.6829 15.74 84.8014 16.1898C84.9198 16.6396 84.979 17.1526 84.979 17.7289V24.6024H80.9593V19.1416C80.9593 18.6074 80.9149 18.1787 80.8261 17.8554C80.752 17.5181 80.6114 17.251 80.4041 17.0542C80.2264 16.8855 80.0265 16.7661 79.8045 16.6958C79.5824 16.6255 79.3455 16.5904 79.0938 16.5904C78.4127 16.5904 77.8871 16.7871 77.517 17.1807C77.1617 17.5602 76.984 18.1084 76.984 18.8253V24.6024H72.9643V13.7861ZM94.4861 17.6235C94.3528 17.0894 94.0789 16.6606 93.6644 16.3373C93.2498 16.0141 92.7464 15.8524 92.1542 15.8524C91.5324 15.8524 91.0216 16.007 90.6218 16.3163C90.2369 16.6255 89.9926 17.0612 89.8889 17.6235H94.4861ZM89.7779 19.8373C89.7779 21.4819 90.5922 22.3042 92.2208 22.3042C93.0943 22.3042 93.7532 21.9669 94.1974 21.2922H98.0838C97.2991 23.7661 95.3374 25.003 92.1986 25.003C91.2362 25.003 90.3553 24.8695 89.5558 24.6024C88.7563 24.3213 88.0678 23.9277 87.4904 23.4217C86.9278 22.9157 86.491 22.3112 86.1801 21.6084C85.8692 20.9056 85.7138 20.1185 85.7138 19.247C85.7138 18.3474 85.8618 17.5392 86.1579 16.8223C86.454 16.0914 86.876 15.4729 87.4238 14.9669C87.9716 14.4608 88.6305 14.0743 89.4003 13.8072C90.185 13.5261 91.066 13.3855 92.0431 13.3855C93.0055 13.3855 93.8716 13.5261 94.6415 13.8072C95.4114 14.0743 96.0629 14.4679 96.5959 14.988C97.1289 15.508 97.536 16.1476 97.8173 16.9066C98.0986 17.6516 98.2393 18.495 98.2393 19.4367V19.8373H89.7779ZM99.5817 20.512C99.5817 23.5693 101.381 24.6024 103.957 24.6024H105.889V21.5452H104.534C103.69 21.5452 103.379 21.25 103.379 20.5542V15.8313H105.867V12.8373H103.379V9.96988H99.5817V12.8373H98.0715V15.8313H99.5817V20.512Z" fill="black"/>
<path d="M53.7373 33.9868V34.637H51.0127V33.9868H53.7373ZM51.8287 38.9803V33.2977C51.8287 33.0116 51.8967 32.7732 52.0326 32.5824C52.1687 32.3917 52.3453 32.2486 52.5624 32.1533C52.7796 32.0579 53.0088 32.0103 53.2501 32.0103C53.4408 32.0103 53.5965 32.0255 53.7169 32.0558C53.8383 32.0861 53.9282 32.1143 53.9875 32.1403L53.7632 32.8035C53.7243 32.7905 53.6687 32.7742 53.5993 32.7547C53.5307 32.7352 53.4408 32.7255 53.3287 32.7255C53.0724 32.7255 52.8871 32.7894 52.773 32.9173C52.6611 33.0452 52.6052 33.2326 52.6052 33.4797V38.9803H51.8287ZM56.3001 39.0843C55.8434 39.0843 55.4431 38.977 55.0984 38.7625C54.7565 38.548 54.4887 38.2478 54.296 37.862C54.1051 37.4762 54.0097 37.0254 54.0097 36.5096C54.0097 35.9894 54.1051 35.5353 54.296 35.1475C54.4887 34.7595 54.7565 34.4582 55.0984 34.2437C55.4431 34.0291 55.8434 33.9218 56.3001 33.9218C56.756 33.9218 57.1553 34.0291 57.4972 34.2437C57.8419 34.4582 58.1097 34.7595 58.3006 35.1475C58.4933 35.5353 58.5896 35.9894 58.5896 36.5096C58.5896 37.0254 58.4933 37.4762 58.3006 37.862C58.1097 38.2478 57.8419 38.548 57.4972 38.7625C57.1553 38.977 56.756 39.0843 56.3001 39.0843ZM56.3001 38.3952C56.6467 38.3952 56.9311 38.3074 57.1553 38.1318C57.3786 37.9562 57.5445 37.7254 57.652 37.4393C57.7595 37.1532 57.8132 36.8434 57.8132 36.5096C57.8132 36.1758 57.7595 35.8648 57.652 35.5765C57.5445 35.2884 57.3786 35.0554 57.1553 34.8776C56.9311 34.6999 56.6467 34.611 56.3001 34.611C55.9536 34.611 55.6682 34.6999 55.444 34.8776C55.2207 35.0554 55.0549 35.2884 54.9474 35.5765C54.8399 35.8648 54.7862 36.1758 54.7862 36.5096C54.7862 36.8434 54.8399 37.1532 54.9474 37.4393C55.0549 37.7254 55.2207 37.9562 55.444 38.1318C55.6682 38.3074 55.9536 38.3952 56.3001 38.3952ZM59.4041 38.9803V33.9868H60.1546V34.7411H60.2074C60.2991 34.494 60.4659 34.2935 60.7077 34.1396C60.9486 33.9857 61.221 33.9088 61.5231 33.9088C61.5805 33.9088 61.6519 33.9099 61.7371 33.912C61.8233 33.9142 61.8872 33.9175 61.9317 33.9218V34.7021C61.9048 34.6956 61.8446 34.6858 61.7501 34.6728C61.6584 34.6576 61.5611 34.65 61.4573 34.65C61.2118 34.65 60.9922 34.701 60.7995 34.8028C60.6086 34.9025 60.4576 35.0413 60.3454 35.219C60.2361 35.3945 60.1814 35.5949 60.1814 35.8204V38.9803H59.4041ZM62.4811 38.9803V33.9868H63.2316V34.7671H63.2974C63.4021 34.5005 63.5726 34.2935 63.807 34.1461C64.0424 33.9966 64.3241 33.9218 64.653 33.9218C64.9865 33.9218 65.2636 33.9966 65.485 34.1461C65.7092 34.2935 65.8834 34.5005 66.0085 34.7671H66.0613C66.1901 34.5092 66.3847 34.3043 66.6432 34.1526C66.9026 33.9987 67.213 33.9218 67.5744 33.9218C68.0265 33.9218 68.3962 34.0616 68.6835 34.3412C68.9707 34.6186 69.1143 35.051 69.1143 35.6383V38.9803H68.3379V35.6383C68.3379 35.2699 68.2359 35.0066 68.0321 34.8484C67.8283 34.6901 67.5883 34.611 67.3112 34.611C66.9564 34.611 66.6812 34.7172 66.4857 34.9296C66.2902 35.1399 66.1929 35.4064 66.1929 35.7293V38.9803H65.4035V35.5603C65.4035 35.2764 65.3099 35.0478 65.1237 34.8744C64.9365 34.6988 64.6965 34.611 64.4028 34.611C64.2008 34.611 64.0127 34.6641 63.8367 34.7703C63.6634 34.8765 63.5235 35.0239 63.416 35.2125C63.3104 35.3988 63.2576 35.6144 63.2576 35.8594V38.9803H62.4811ZM72.2822 39.0843C71.7957 39.0843 71.376 38.9781 71.0221 38.7657C70.6718 38.5512 70.4004 38.2521 70.2095 37.8685C70.0214 37.4827 69.9269 37.0341 69.9269 36.5226C69.9269 36.0111 70.0214 35.5603 70.2095 35.1702C70.4004 34.7779 70.6663 34.4723 71.0063 34.2534C71.3482 34.0323 71.7476 33.9218 72.2034 33.9218C72.4666 33.9218 72.7269 33.9651 72.9836 34.0518C73.2402 34.1385 73.4737 34.2794 73.684 34.4745C73.8953 34.6674 74.063 34.9231 74.1881 35.2418C74.3132 35.5603 74.3752 35.9526 74.3752 36.4186V36.7437H70.4791V36.0804H73.5858C73.5858 35.7987 73.5284 35.5473 73.4144 35.3263C73.3023 35.1052 73.1429 34.9307 72.9345 34.8028C72.7278 34.675 72.4842 34.611 72.2034 34.611C71.8939 34.611 71.6271 34.6869 71.401 34.8386C71.1768 34.9882 71.0045 35.1832 70.884 35.4238C70.7636 35.6643 70.7033 35.9222 70.7033 36.1975V36.6396C70.7033 37.0167 70.7691 37.3364 70.9007 37.5986C71.0341 37.8587 71.2194 38.057 71.4566 38.1936C71.6938 38.328 71.969 38.3952 72.2822 38.3952C72.4869 38.3952 72.6713 38.367 72.8353 38.3106C73.0021 38.2521 73.1457 38.1654 73.2662 38.0505C73.3866 37.9335 73.4802 37.7883 73.546 37.6149L74.2965 37.823C74.2177 38.0744 74.0843 38.2955 73.8981 38.4862C73.7118 38.6747 73.4811 38.822 73.2069 38.9282C72.9326 39.0323 72.625 39.0843 72.2822 39.0843ZM75.186 38.9803V33.9868H75.9365V34.7411H75.9884C76.081 34.494 76.2478 34.2935 76.4887 34.1396C76.7305 33.9857 77.002 33.9088 77.305 33.9088C77.3615 33.9088 77.4329 33.9099 77.519 33.912C77.6043 33.9142 77.6691 33.9175 77.7127 33.9218V34.7021C77.6867 34.6956 77.6265 34.6858 77.532 34.6728C77.4393 34.6576 77.3421 34.65 77.2392 34.65C76.9937 34.65 76.7741 34.701 76.5814 34.8028C76.3905 34.9025 76.2385 35.0413 76.1273 35.219C76.0171 35.3945 75.9624 35.5949 75.9624 35.8204V38.9803H75.186ZM79.0395 32.3223V38.9803H78.263V32.3223H79.0395ZM80.5905 40.8528C80.459 40.8528 80.3422 40.842 80.2385 40.8203C80.1356 40.8008 80.0643 40.7813 80.0253 40.7618L80.2227 40.0856C80.4108 40.1333 80.5776 40.1507 80.7221 40.1377C80.8676 40.1247 80.9954 40.0607 81.1076 39.9458C81.2215 39.8331 81.3253 39.65 81.4198 39.3964L81.5653 39.0063L79.6955 33.9868H80.5387L81.9331 37.966H81.9859L83.3813 33.9868H84.2235L82.0786 39.7085C81.9813 39.9664 81.8618 40.1799 81.7191 40.3489C81.5773 40.5201 81.4115 40.6469 81.2224 40.7293C81.0362 40.8116 80.8259 40.8528 80.5905 40.8528Z" fill="black"/>
<path d="M89.1961 38.9798H86.9131V32.3218H89.2424C89.9114 32.3218 90.4859 32.4551 90.9667 32.7217C91.4495 32.986 91.8201 33.3664 92.0786 33.8628C92.3371 34.3591 92.4668 34.9529 92.4668 35.6443C92.4668 36.3378 92.3362 36.9338 92.0758 37.4323C91.8164 37.9307 91.443 38.3133 90.9538 38.5799C90.4664 38.8465 89.8808 38.9798 89.1961 38.9798ZM88.1334 37.9361H89.1368C89.6066 37.9361 89.9985 37.8516 90.3117 37.6827C90.6258 37.5114 90.8611 37.2568 91.0196 36.9186C91.1771 36.5784 91.2558 36.1536 91.2558 35.6443C91.2558 35.1349 91.1771 34.7123 91.0196 34.3764C90.8611 34.0383 90.6276 33.7858 90.3182 33.6189C90.0115 33.4499 89.6297 33.3653 89.1729 33.3653H88.1334V37.9361ZM93.2562 38.9798V32.3218H95.7829C96.3009 32.3218 96.7354 32.4172 97.0857 32.6079C97.4396 32.7986 97.7055 33.0608 97.8853 33.3946C98.0678 33.7262 98.1586 34.1034 98.1586 34.5259C98.1586 34.9529 98.0678 35.3322 97.8853 35.6638C97.7037 35.9954 97.435 36.2565 97.0792 36.4472C96.7243 36.6358 96.2861 36.7301 95.7663 36.7301H94.092V35.7386H95.6023C95.9053 35.7386 96.1526 35.6866 96.3454 35.5825C96.539 35.4785 96.6817 35.3354 96.7734 35.1534C96.8679 34.9713 96.9152 34.7622 96.9152 34.5259C96.9152 34.2898 96.8679 34.0817 96.7734 33.9018C96.6817 33.7219 96.5381 33.5821 96.3426 33.4824C96.1499 33.3805 95.9006 33.3296 95.5958 33.3296H94.4765V38.9798H93.2562ZM99.9867 36.0539V38.9798H98.7961V32.3218H99.9608V34.8348H100.02C100.138 34.553 100.321 34.3309 100.569 34.1684C100.82 34.0037 101.137 33.9213 101.524 33.9213C101.874 33.9213 102.181 33.9939 102.441 34.1391C102.702 34.2843 102.904 34.4967 103.047 34.7762C103.192 35.0558 103.264 35.3972 103.264 35.8003V38.9798H102.073V35.9824C102.073 35.6465 101.985 35.3853 101.809 35.1989C101.636 35.0103 101.393 34.916 101.079 34.916C100.869 34.916 100.68 34.9616 100.513 35.0526C100.349 35.1414 100.219 35.2704 100.125 35.4395C100.033 35.6085 99.9867 35.8134 99.9867 36.0539ZM104.107 38.9798V33.9863H105.299V38.9798H104.107ZM104.707 33.2776C104.518 33.2776 104.355 33.2158 104.219 33.0922C104.083 32.9665 104.015 32.816 104.015 32.6404C104.015 32.4627 104.083 32.3121 104.219 32.1885C104.355 32.0628 104.518 32 104.707 32C104.897 32 105.06 32.0628 105.193 32.1885C105.329 32.3121 105.397 32.4627 105.397 32.6404C105.397 32.816 105.329 32.9665 105.193 33.0922C105.06 33.2158 104.897 33.2776 104.707 33.2776Z" fill="#0FA958"/>
<path d="M18.9493 1C28.3306 1 35.9368 8.61051 35.9368 18C35.9368 27.3895 28.3306 35 18.9493 35C9.56801 35 1.96179 27.3895 1.96179 18C1.96179 8.61051 9.56801 1 18.9493 1Z" stroke="#0FA958" stroke-width="2"/>
<path d="M32.9395 18C32.9395 10.268 26.6759 4 18.9493 4C11.2226 4 4.95898 10.268 4.95898 18C4.95898 25.732 11.2226 32 18.9493 32C26.6759 32 32.9395 25.732 32.9395 18Z" fill="#0FA958"/>
<path d="M13.5206 19.7053C13.5206 20.0274 13.5775 20.3301 13.6912 20.6135C13.805 20.8841 13.9567 21.1224 14.1463 21.3285C14.3486 21.5346 14.5825 21.6957 14.848 21.8116C15.1261 21.9275 15.4232 21.9855 15.7392 21.9855C16.0426 21.9855 16.3271 21.9275 16.5925 21.8116C16.8707 21.6957 17.1045 21.5346 17.2942 21.3285C17.4964 21.1224 17.6544 20.8841 17.7682 20.6135C17.8946 20.343 17.9579 20.0531 17.9579 19.744C17.9579 19.4348 17.8946 19.1449 17.7682 18.8744C17.6544 18.591 17.4964 18.3462 17.2942 18.1401C17.1045 17.934 16.8707 17.7729 16.5925 17.657C16.3271 17.5411 16.0426 17.4831 15.7392 17.4831C15.4232 17.4831 15.1261 17.5411 14.848 17.657C14.5825 17.7729 14.3486 17.934 14.1463 18.1401C13.9567 18.3462 13.805 18.5845 13.6912 18.8551C13.5775 19.1127 13.5206 19.3961 13.5206 19.7053ZM17.8441 14.7778H21.2953V24.6908H17.8441V23.5894C17.1108 24.5298 16.1185 25 14.8669 25C14.159 25 13.5079 24.8712 12.9138 24.6135C12.3196 24.343 11.8013 23.9694 11.3588 23.4928C10.9163 23.0161 10.5687 22.4557 10.3159 21.8116C10.0757 21.1675 9.95557 20.4654 9.95557 19.7053C9.95557 18.9968 10.0757 18.3269 10.3159 17.6957C10.5561 17.0515 10.8911 16.4911 11.3209 16.0145C11.7507 15.5378 12.2627 15.1643 12.8569 14.8937C13.451 14.6103 14.1084 14.4686 14.829 14.4686C16.0426 14.4686 17.0476 14.9002 17.8441 15.7633V14.7778ZM25.7359 14.7778V24.6908H22.3036V14.7778H25.7359ZM22.0761 10.971C22.0761 10.7005 22.1266 10.4493 22.2278 10.2174C22.3289 9.97262 22.468 9.76006 22.6449 9.57971C22.8219 9.39936 23.0242 9.25765 23.2517 9.15459C23.4919 9.05153 23.7448 9 24.0103 9C24.2757 9 24.5223 9.05153 24.7498 9.15459C24.99 9.25765 25.1986 9.39936 25.3756 9.57971C25.5526 9.76006 25.6916 9.97262 25.7928 10.2174C25.8939 10.4493 25.9445 10.7005 25.9445 10.971C25.9445 11.2415 25.8939 11.4992 25.7928 11.744C25.6916 11.9758 25.5526 12.182 25.3756 12.3623C25.1986 12.5427 24.99 12.6844 24.7498 12.7874C24.5223 12.8905 24.2757 12.942 24.0103 12.942C23.7448 12.942 23.4919 12.8905 23.2517 12.7874C23.0242 12.6844 22.8219 12.5427 22.6449 12.3623C22.468 12.182 22.3289 11.9758 22.2278 11.744C22.1266 11.4992 22.0761 11.2415 22.0761 10.971Z" fill="white"/>
</svg>
