<svg xmlns="http://www.w3.org/2000/svg" width="15" height="19" viewBox="0 0 15 19" fill="none">
  <path d="M9.62744 0.842041V4.63239C9.62744 4.88371 9.72728 5.12473 9.90498 5.30244C10.0827 5.48014 10.3237 5.57998 10.575 5.57998H14.3654" stroke="#0FA958" stroke-width="1.17632" stroke-linecap="round" stroke-linejoin="round"/>
  <path d="M12.4702 17.8986H2.9943C2.49166 17.8986 2.00962 17.699 1.65421 17.3435C1.29879 16.9881 1.09912 16.5061 1.09912 16.0034V2.73722C1.09912 2.23458 1.29879 1.75254 1.65421 1.39712C2.00962 1.04171 2.49166 0.842041 2.9943 0.842041H9.62741L14.3653 5.57998V16.0034C14.3653 16.5061 14.1657 16.9881 13.8103 17.3435C13.4548 17.699 12.9728 17.8986 12.4702 17.8986Z" stroke="#0FA958" stroke-width="1.17632" stroke-linecap="round" stroke-linejoin="round"/>
</svg>